<svg width="104" height="144" viewBox="0 0 104 144" fill="none" xmlns="http://www.w3.org/2000/svg">
<g clip-path="url(#clip0_5_9600)">
<path d="M52 144C40.0344 138.732 29.5262 130.631 21.38 120.394C13.342 109.906 7.79069 97.7246 5.14598 84.7712C3.14841 75.3847 1.80889 65.8696 1.13723 56.2958C0.398032 46.6142 0.142154 37.018 0 27.3933C11.3854 19.5127 24.5622 14.6175 38.3248 13.1556V0H65.6752V13.0417C79.4378 14.5036 92.6146 19.3988 104 27.2794C104 36.8756 103.602 46.5003 102.863 56.0965C102.191 65.6703 100.852 75.1853 98.854 84.5719C96.1848 97.5173 90.6359 109.693 82.62 120.195C74.4674 130.425 63.9609 138.525 52 143.801" fill="white"/>
<path d="M94.1061 80.8416C97.4609 66.0914 97.9442 49.5187 98.5697 31.266C88.6892 24.7733 77.4195 20.7051 65.6752 19.3917V26.8238C65.7745 28.3256 65.3154 29.8112 64.3862 30.9941C63.4571 32.1771 62.1237 32.9738 60.643 33.2308C59.7078 33.4221 58.7542 33.5081 57.7999 33.487C56.7085 33.3152 55.5911 33.4414 54.5654 33.8523C53.5396 34.2633 52.6435 34.9437 51.9716 35.822C51.2996 34.9437 50.4035 34.2633 49.3778 33.8523C48.3521 33.4414 47.2346 33.3152 46.1433 33.487C45.1891 33.5058 44.2357 33.4198 43.3002 33.2308C41.8247 32.9676 40.4981 32.1682 39.5747 30.9859C38.6513 29.8036 38.1961 28.3215 38.2963 26.8238V19.3917C26.5571 20.7267 15.2973 24.8143 5.4303 31.3229C6.05578 49.5472 6.5391 66.1483 9.89394 80.8986C22.3382 72.5079 36.9986 68.026 52 68.026C67.0014 68.026 81.6618 72.5079 94.1061 80.8986" fill="#E21A26"/>
<path d="M19.5036 67.4582V71.1884L16.6605 68.7965L17.684 71.0745C17.684 71.2739 17.684 71.4162 17.883 71.4447C17.9637 71.5094 18.064 71.5447 18.1673 71.5447C18.2707 71.5447 18.3709 71.5094 18.4516 71.4447V71.5871L17.1154 72.1851C17.2414 72.1304 17.3496 72.0417 17.4281 71.9288C17.4422 71.8249 17.4422 71.7195 17.4281 71.6156V71.3023L16.433 69.0813L16.2056 68.6826C16.1214 68.6263 16.0225 68.5962 15.9213 68.5962C15.8201 68.5962 15.7211 68.6263 15.637 68.6826V68.5402L16.7173 68.0277L19.3045 70.2203V66.8032L20.3849 66.3192C20.2643 66.3823 20.1578 66.4695 20.0722 66.5754C20.0437 66.6682 20.0437 66.7674 20.0722 66.8602C20.0609 66.9643 20.0609 67.0693 20.0722 67.1734L21.0957 69.423C21.1417 69.5563 21.2089 69.6813 21.2947 69.7931C21.3798 69.8601 21.485 69.8965 21.5932 69.8965C21.7015 69.8965 21.8066 69.8601 21.8917 69.7931V69.9355L20.2143 70.7044V70.562C20.3431 70.4982 20.4515 70.3996 20.5271 70.2772C20.5556 70.1845 20.5556 70.0852 20.5271 69.9925V69.6792L19.5036 67.4582Z" fill="white"/>
<path d="M22.9152 65.1516C23.2511 65.0661 23.6029 65.0661 23.9388 65.1516C24.2863 65.2326 24.6063 65.4044 24.866 65.6495C25.1257 65.8946 25.3159 66.2042 25.4172 66.5469C25.6462 67.1032 25.6462 67.7277 25.4172 68.2839C25.3182 68.5265 25.1621 68.7414 24.9623 68.9104C24.7795 69.1007 24.5559 69.2468 24.3084 69.3375C23.9378 69.4517 23.5416 69.4517 23.1711 69.3375C22.8392 69.2435 22.5369 69.0659 22.2931 68.8217C22.0492 68.5774 21.8719 68.2746 21.778 67.9422C21.6654 67.6716 21.6074 67.3812 21.6074 67.088C21.6074 66.7947 21.6654 66.5044 21.778 66.2337C21.8749 65.9504 22.041 65.6959 22.2613 65.4934C22.4516 65.3124 22.6732 65.1677 22.9152 65.0662V65.3225C22.671 65.4204 22.4695 65.6021 22.3466 65.8351C22.2214 66.1118 22.163 66.4142 22.176 66.7178C22.2046 67.0193 22.2715 67.316 22.3751 67.6005C22.5213 68.0438 22.787 68.4379 23.1427 68.7395C23.2861 68.8659 23.4647 68.9454 23.6544 68.9673C23.8301 69.024 24.019 69.024 24.1946 68.9673C24.3209 68.9284 24.4371 68.8624 24.5353 68.7738C24.6335 68.6853 24.7113 68.5765 24.7632 68.4548C24.8541 68.1482 24.8541 67.8217 24.7632 67.5151C24.7372 67.25 24.6701 66.9906 24.5642 66.7463C24.432 66.2954 24.1759 65.8908 23.825 65.5788C23.6982 65.5018 23.5558 65.4541 23.4082 65.4394C23.2606 65.4246 23.1116 65.443 22.9721 65.4934L22.9152 65.1516Z" fill="white"/>
<path d="M28.7152 63.2438V63.4716C28.8232 63.8492 28.9759 64.2125 29.1701 64.5537H28.9995C28.8905 64.3483 28.7568 64.157 28.6014 63.9842C28.4572 63.8545 28.2799 63.7672 28.0893 63.7321C27.8987 63.6969 27.702 63.7152 27.5211 63.7849C27.3322 63.8374 27.1586 63.9347 27.0151 64.0685C26.8716 64.2023 26.7624 64.3687 26.6966 64.5537C26.5535 65.0272 26.5535 65.5325 26.6966 66.006C26.8063 66.3488 26.98 66.6676 27.2083 66.9456C27.3825 67.1654 27.6212 67.3248 27.8907 67.4012C28.1241 67.4591 28.368 67.4591 28.6014 67.4012C28.8649 67.3288 29.1007 67.1788 29.2781 66.9706C29.4555 66.7625 29.5664 66.5058 29.5965 66.2338H29.7955C29.7486 66.5053 29.6522 66.7659 29.5112 67.0026C29.249 67.4035 28.8417 67.6869 28.375 67.7931C27.9084 67.8993 27.4188 67.8201 27.0093 67.5721C26.5311 67.276 26.185 66.807 26.0427 66.2622C25.8566 65.7764 25.8566 65.2388 26.0427 64.753C26.1619 64.4279 26.3685 64.1422 26.6397 63.9272C26.8246 63.7588 27.0499 63.6411 27.2936 63.5855C27.5828 63.512 27.8858 63.512 28.175 63.5855C28.206 63.6007 28.24 63.6085 28.2745 63.6085C28.309 63.6085 28.343 63.6007 28.374 63.5855C28.374 63.5855 28.5161 63.5855 28.5161 63.4147L28.7152 63.2438Z" fill="white"/>
<path d="M31.2739 64.7245H31.5298C31.5298 64.7245 31.5298 64.7245 31.7004 64.5537C31.768 64.4163 31.844 64.2832 31.9279 64.155L32.3259 63.3862L32.4965 63.0445C32.525 62.9713 32.525 62.8899 32.4965 62.8167C32.4965 62.8167 32.4965 62.8167 32.2975 62.8167H32.07V62.6458L33.6053 62.3041V62.4465L33.2641 62.5889C33.1462 62.7 33.0412 62.8242 32.9514 62.9591L32.0416 64.5252L33.8327 65.8636C33.9448 65.9563 34.0692 66.033 34.2023 66.0914C34.4082 66.1379 34.6219 66.1379 34.8278 66.0914L33.0367 66.547V66.4046C33.2641 66.4046 33.3494 66.2622 33.321 66.1483C33.2925 66.0344 33.321 66.0059 33.0935 65.892L31.7004 64.8669H31.4445L31.7573 66.1768C31.7573 66.4046 31.8994 66.547 32.0416 66.5754H32.468V66.7178L30.6485 67.145V67.0026C31.0465 67.0026 31.1887 66.6609 31.1034 66.3192L30.4779 63.6994C30.4855 63.6047 30.4855 63.5094 30.4779 63.4147C30.4382 63.338 30.3761 63.2751 30.3 63.2344C30.2238 63.1938 30.1372 63.1772 30.0514 63.1869H29.824V63.016L31.2739 62.6458V62.7882C31.1024 62.8292 30.9512 62.9302 30.8475 63.073C30.791 63.2294 30.791 63.4007 30.8475 63.5571L31.2739 64.7245Z" fill="white"/>
<path d="M36.1072 61.5353C36.4547 61.4717 36.8135 61.5216 37.1307 61.6777C37.4665 61.8053 37.7595 62.0254 37.9758 62.3125C38.1921 62.5997 38.3229 62.9423 38.3532 63.3008C38.4703 63.8767 38.3689 64.4757 38.0689 64.9808C37.9159 65.1962 37.7229 65.3799 37.5003 65.5219C37.2858 65.6714 37.0444 65.7777 36.7895 65.8351C36.4047 65.9021 36.0087 65.8525 35.6523 65.6927C35.3395 65.5428 35.0705 65.3147 34.8713 65.0304C34.6721 64.7461 34.5494 64.4152 34.515 64.0696C34.4497 63.7846 34.4411 63.4895 34.4899 63.2012C34.5387 62.9129 34.6439 62.6371 34.7993 62.3896C34.961 62.1737 35.1524 61.982 35.368 61.8201C35.5963 61.6836 35.8463 61.5873 36.1072 61.5353V61.7916C35.8552 61.8388 35.6311 61.9816 35.4817 62.1902C35.2888 62.4341 35.1791 62.7335 35.1689 63.0445C35.1273 63.3373 35.1273 63.6345 35.1689 63.9272C35.2558 64.3793 35.4401 64.8069 35.7091 65.1802C35.8354 65.3369 36.0027 65.4552 36.1924 65.5219C36.3699 65.5653 36.5552 65.5653 36.7326 65.5219C36.9951 65.4636 37.2275 65.3118 37.3865 65.0947C37.5811 64.8427 37.6817 64.5304 37.6709 64.212C37.7124 63.9479 37.7124 63.6788 37.6709 63.4147C37.6123 62.9421 37.4364 62.4917 37.1591 62.1048C37.0405 61.953 36.8816 61.8377 36.7005 61.7722C36.5195 61.7067 36.3237 61.6937 36.1356 61.7346L36.1072 61.5353Z" fill="white"/>
<path d="M46.2286 60.2824V60.5102C46.2523 60.8961 46.319 61.2782 46.4276 61.6492H46.257C46.2148 61.4203 46.1172 61.2052 45.9727 61.0228C45.8645 60.8627 45.7144 60.7355 45.5389 60.6552C45.3634 60.5748 45.1692 60.5444 44.9776 60.5672C44.7814 60.5855 44.592 60.649 44.4244 60.7528C44.2567 60.8565 44.1152 60.9976 44.0109 61.1651C43.7429 61.5776 43.6319 62.0728 43.6982 62.5604C43.7378 62.9277 43.8438 63.2847 44.0109 63.614C44.1391 63.8567 44.3372 64.0552 44.5796 64.1835C44.7967 64.3019 45.0445 64.3515 45.2903 64.3259C45.5638 64.3071 45.8257 64.2079 46.0431 64.0408C46.2606 63.8736 46.424 63.6459 46.5129 63.3862H46.6834C46.5892 63.6407 46.4441 63.8733 46.257 64.0696C45.9574 64.3633 45.5657 64.5444 45.1482 64.5822C44.8866 64.6012 44.6238 64.5682 44.375 64.4851C44.1261 64.402 43.8961 64.2705 43.6982 64.0981C43.2842 63.7144 43.0388 63.1819 43.0159 62.6174C42.9531 62.1027 43.0631 61.5818 43.3286 61.1367C43.5357 60.8592 43.7969 60.6267 44.0962 60.4532C44.3221 60.3464 44.5611 60.2698 44.807 60.2254C45.1163 60.2192 45.4242 60.2674 45.7168 60.3678C45.7168 60.3678 46.0295 60.3678 46.058 60.3678L46.2286 60.2824Z" fill="white"/>
<path d="M73.9202 63.8703L73.3516 66.2338C73.3516 66.6894 73.3516 66.9456 73.7496 67.0595V67.2304L71.9869 66.8033V66.6324C72.4702 66.6324 72.6408 66.6324 72.7261 66.0914L73.3516 63.5855C73.3516 63.2438 73.3516 63.073 73.0104 62.9876H72.6976C72.328 62.9876 72.1859 62.9876 72.0722 63.3577L71.532 65.5503C71.4727 65.85 71.3463 66.1324 71.1624 66.3761C71.0745 66.4794 70.9542 66.5497 70.8212 66.5755C70.675 66.6326 70.5126 66.6326 70.3663 66.5755C70.1997 66.5398 70.0497 66.4496 69.9399 66.3192C69.7693 66.006 69.9399 65.6073 70.3095 65.6927C70.6791 65.7782 70.5938 65.8921 70.5938 66.1483C70.5938 66.4046 70.5938 66.3477 70.5938 66.3761C70.5938 66.4046 70.9065 66.2338 71.0202 65.8636C71.134 65.4934 71.1624 65.351 71.2761 64.8954L71.6457 63.3862C71.6457 63.073 71.8163 62.7598 71.4467 62.6174H71.2477V62.4465L74.6309 63.3293V63.4716C74.1192 63.4716 74.0055 63.4716 73.8633 64.0412" fill="white"/>
<path d="M82.7622 65.8351V66.0344C82.6305 66.4039 82.5353 66.7854 82.4778 67.1734H82.3073C82.3499 66.9381 82.3499 66.6969 82.3073 66.4615C82.2605 66.2783 82.172 66.1083 82.0487 65.965C81.9254 65.8218 81.7706 65.7091 81.5965 65.6358C81.4186 65.552 81.2244 65.5085 81.0279 65.5085C80.8313 65.5085 80.6371 65.552 80.4593 65.6358C80.0587 65.9247 79.7601 66.3335 79.6063 66.8032C79.4986 67.1443 79.4411 67.4992 79.4357 67.8568C79.4625 68.1469 79.5709 68.4234 79.7485 68.6542C79.8989 68.8425 80.0945 68.9894 80.3171 69.0813C80.5718 69.1778 80.8499 69.1941 81.1142 69.128C81.3784 69.0618 81.6161 68.9164 81.7955 68.7111L81.9377 68.882C81.7377 69.0643 81.5066 69.209 81.2553 69.3091C80.8629 69.466 80.4253 69.466 80.0328 69.3091C79.7862 69.2182 79.5607 69.0778 79.37 68.8967C79.1794 68.7155 79.0276 68.4974 78.924 68.2555C78.7257 67.7229 78.7257 67.1365 78.924 66.6039C79.0444 66.1776 79.2806 65.7931 79.6063 65.4934C79.893 65.3006 80.2279 65.1921 80.573 65.1802C80.8175 65.1371 81.0677 65.1371 81.3122 65.1802C81.6078 65.2821 81.8722 65.4586 82.0798 65.6927C82.2504 65.8636 82.3641 65.8351 82.5063 65.6927L82.7622 65.8351Z" fill="white"/>
<path d="M86.515 67.4582L86.1738 68.3979C86.2182 68.3239 86.2469 68.2415 86.258 68.1559C86.2691 68.0704 86.2624 67.9834 86.2384 67.9005C86.2144 67.8176 86.1735 67.7406 86.1184 67.6743C86.0632 67.608 85.995 67.5538 85.918 67.5151L85.5768 67.3443H85.2641L84.07 70.1918C83.8709 70.7044 83.8994 70.8752 84.3827 71.103V71.2739L82.4494 70.3057V70.1349C82.9327 70.3342 83.0749 70.1349 83.2455 69.6793L84.4111 66.8317H84.1553C83.6435 66.6324 83.217 66.4615 82.9327 67.088H82.7906L83.217 66.2053L86.515 67.4582Z" fill="white"/>
<path d="M41.1963 62.8452C41.4196 62.8634 41.6395 62.9113 41.8502 62.9876C41.9838 63.0517 42.1019 63.1442 42.1964 63.2586C42.2908 63.373 42.3593 63.5066 42.3972 63.6501C42.435 63.7936 42.4413 63.9436 42.4156 64.0898C42.3899 64.236 42.3328 64.3748 42.2482 64.4967C42.1173 64.6683 41.9498 64.8084 41.758 64.9069C41.5662 65.0054 41.3549 65.0598 41.1394 65.0663L39.2345 65.3225V65.1517C39.7463 65.1517 39.7463 64.7815 39.6894 64.3828L39.3767 61.934C39.3767 61.5353 39.3767 61.2506 38.7512 61.3075V61.1366L40.3433 60.9373C40.6803 60.8614 41.0299 60.8614 41.3669 60.9373C41.5556 60.9994 41.7214 61.1167 41.843 61.274C41.9646 61.4313 42.0364 61.6215 42.0492 61.8201C42.0819 61.969 42.0697 62.1244 42.014 62.2664C41.9583 62.4084 41.8617 62.5305 41.7365 62.6174C41.6055 62.7235 41.4483 62.7924 41.2816 62.8167M40.0306 61.279L40.2296 62.7598C40.2296 62.7598 40.4571 62.7598 40.5139 62.7598C40.7544 62.7288 40.9812 62.6301 41.1678 62.475C41.2678 62.3781 41.3417 62.2574 41.3826 62.1242C41.4235 61.991 41.43 61.8496 41.4017 61.7131C41.3733 61.5767 41.3109 61.4497 41.2203 61.3439C41.1297 61.2381 41.0138 61.157 40.8835 61.1082C40.686 61.0742 40.4841 61.0742 40.2865 61.1082H40.0875M40.3149 63.016L40.5424 64.6391H40.912C41.1406 64.5969 41.3553 64.4991 41.5374 64.3544C41.6499 64.2577 41.7353 64.1333 41.7852 63.9935C41.835 63.8537 41.8476 63.7032 41.8218 63.5571C41.8068 63.4072 41.7512 63.2644 41.661 63.1439C41.5708 63.0235 41.4494 62.93 41.31 62.8736C41.0961 62.8142 40.87 62.8142 40.6561 62.8736H40.2865" fill="white"/>
<path d="M48.3324 62.2187H48.5883C48.5883 62.2187 48.5883 62.2187 48.7873 62.0763L49.0716 61.7346L49.6402 61.0512L49.8677 60.738C49.8677 60.738 49.8677 60.4248 49.8677 60.3678H49.6118V60.197H51.2039V60.3678C50.9183 60.3882 50.6524 60.5214 50.4647 60.738L49.2706 62.0763L50.7775 63.7849C50.866 63.8958 50.9715 63.9919 51.0902 64.0696C51.2091 64.1457 51.3472 64.1861 51.4883 64.1861C51.6293 64.1861 51.7674 64.1457 51.8863 64.0696C52.0391 63.9284 52.156 63.7527 52.2275 63.5571L53.7343 60.0261L55.1843 63.671C55.2557 63.8363 55.3515 63.9899 55.4686 64.1266C55.6083 64.2278 55.7823 64.2696 55.9527 64.243C56.1231 64.2163 56.2761 64.1233 56.3784 63.9842L57.4303 62.5889C57.2119 62.549 57.0123 62.4391 56.8617 62.2757C56.7588 62.1718 56.6799 62.0466 56.6308 61.9088C56.5817 61.771 56.5634 61.624 56.5774 61.4784C56.5774 60.4248 57.6862 60.4248 58.4538 60.4817H59.8753V60.6241C59.7192 60.5676 59.5482 60.5676 59.392 60.6241C59.392 60.6241 59.2499 60.8804 59.2214 61.1936L59.0509 63.6425C59.0346 63.7844 59.0346 63.9277 59.0509 64.0696C59.0743 64.1503 59.1244 64.2206 59.193 64.269C59.3214 64.317 59.4627 64.317 59.591 64.269V64.4398H57.743V64.269C57.8334 64.2914 57.9279 64.2901 58.0176 64.2651C58.1073 64.2402 58.189 64.1924 58.2548 64.1266C58.3587 63.9646 58.4176 63.7779 58.4254 63.5855V62.5035H57.9705L56.5774 64.4113H53.9617V64.269H54.2745C54.2745 64.269 54.2745 64.269 54.2745 64.0696C54.2951 63.9951 54.2951 63.9164 54.2745 63.8418L53.9902 63.1015H52.5118L52.2275 63.7564C52.2107 63.8697 52.2107 63.9848 52.2275 64.0981C52.2275 64.0981 52.2275 64.2974 52.4833 64.2974H52.6823V64.4683H51.403H49.6687V64.2974C49.9246 64.2974 50.0383 64.2974 50.0383 64.0981C50.0383 63.8988 50.0383 64.0981 49.8393 63.8133L48.702 62.532C48.6379 62.5079 48.5672 62.5079 48.503 62.532H48.3324V63.8703C48.3243 63.9599 48.3413 64.05 48.3815 64.1305C48.4217 64.211 48.4834 64.2786 48.5599 64.3259C48.6901 64.3624 48.8277 64.3624 48.9579 64.3259V64.4968H47.1099V64.3259C47.5364 64.3259 47.7354 64.1266 47.707 63.7564V61.0797C47.707 60.795 47.7069 60.5387 47.3089 60.4817H47.053V60.3109H48.901V60.4533C48.4746 60.4533 48.304 60.6811 48.3324 61.1367V62.2187ZM58.596 60.8519V60.6241C58.4844 60.5924 58.3663 60.5924 58.2548 60.6241C58.1181 60.6068 57.9792 60.6181 57.8471 60.6573C57.715 60.6965 57.5924 60.7628 57.4872 60.8519C57.4024 60.9276 57.3336 61.0195 57.2848 61.1222C57.236 61.2249 57.2081 61.3363 57.2029 61.4499C57.1592 61.5889 57.1592 61.738 57.2029 61.877C57.2613 62.017 57.3485 62.1431 57.4587 62.2472C57.6079 62.3336 57.7718 62.3915 57.942 62.4181H58.4254L58.596 60.8519ZM52.6539 62.6459H54.0186L53.3931 61.0512L52.6539 62.6459Z" fill="white"/>
<path d="M65.0498 61.3644C65.3183 61.6017 65.5201 61.9054 65.6348 62.2452C65.7496 62.5849 65.7733 62.9489 65.7037 63.3008C65.6466 63.889 65.3606 64.4312 64.9076 64.81C64.6985 64.9745 64.4558 65.0912 64.1968 65.1517C63.9458 65.2222 63.6802 65.2222 63.4292 65.1517C63.0453 65.1034 62.6868 64.9338 62.4057 64.6676C62.1627 64.4255 61.9815 64.1282 61.8776 63.8011C61.7737 63.4739 61.75 63.1265 61.8086 62.7882C61.8354 62.4965 61.9195 62.213 62.0562 61.954C62.1928 61.695 62.3792 61.4656 62.6047 61.279C62.8194 61.1169 63.0596 60.9918 63.3155 60.9088C63.6147 60.8237 63.9305 60.8157 64.2337 60.8853C64.5368 60.955 64.8175 61.1002 65.0498 61.3075M63.3155 61.3075C63.0638 61.4805 62.8744 61.7301 62.7753 62.0194C62.64 62.2848 62.5625 62.576 62.5479 62.8736C62.4175 63.3296 62.4175 63.813 62.5479 64.2689C62.626 64.4445 62.7426 64.6002 62.889 64.7245C63.0319 64.8476 63.2125 64.9179 63.4008 64.9239C63.5243 64.9543 63.6532 64.9547 63.7769 64.925C63.9006 64.8952 64.0153 64.8363 64.1115 64.753C64.3874 64.5737 64.5893 64.3007 64.6802 63.9842C64.7894 63.751 64.8568 63.5004 64.8792 63.2438C64.9869 62.785 64.9869 62.3074 64.8792 61.8485C64.832 61.6941 64.749 61.553 64.637 61.4368C64.525 61.3205 64.3871 61.2324 64.2347 61.1797C64.0823 61.127 63.9195 61.111 63.7598 61.1333C63.6001 61.1555 63.4478 61.2152 63.3155 61.3075Z" fill="white"/>
<path d="M67.9213 63.4716C68.278 63.5158 68.6243 63.6218 68.9448 63.7849C69.1861 63.9104 69.3696 64.1248 69.4565 64.3828C69.501 64.6085 69.501 64.8406 69.4565 65.0663C69.4168 65.2613 69.3241 65.4416 69.1887 65.5873C69.0533 65.733 68.8803 65.8384 68.6889 65.892C68.3158 65.9873 67.9248 65.9873 67.5517 65.892L65.8458 65.5788V65.4934C65.9669 65.5422 66.102 65.5429 66.2236 65.4953C66.3451 65.4476 66.4439 65.3553 66.4997 65.2371C66.4997 65.2371 66.4997 65.0663 66.4997 64.8954L66.9546 62.5035C66.9546 62.1902 66.9546 61.8485 66.6987 61.7346H66.4997V61.5638L69.5703 62.1618L69.4281 63.3008H69.2575C69.2878 63.1122 69.2878 62.9199 69.2575 62.7313C69.2575 62.5035 69.0016 62.3611 68.632 62.2757H68.234C67.9213 62.2757 67.9213 62.2757 67.836 62.5319L67.6085 63.7564H67.9781M67.2674 65.4934C67.2674 65.8351 67.2674 65.8066 67.6085 65.8636C67.7481 65.9223 67.8979 65.9526 68.0492 65.9526C68.2006 65.9526 68.3504 65.9223 68.4899 65.8636C68.5924 65.7914 68.6784 65.6983 68.7421 65.5902C68.8059 65.4822 68.8459 65.3618 68.8595 65.2371C68.9112 65.1206 68.938 64.9945 68.938 64.8669C68.938 64.7394 68.9112 64.6133 68.8595 64.4967C68.6736 64.2882 68.4234 64.1478 68.1487 64.0981H67.6938L67.2674 65.4934Z" fill="white"/>
<path d="M77.5024 67.6575C77.4738 67.8367 77.4738 68.0193 77.5024 68.1985C77.6055 68.3032 77.7323 68.3814 77.872 68.4263L76.2231 67.9138H76.7632C76.7632 67.9138 76.7632 67.9138 76.9054 67.7714C76.923 67.6869 76.923 67.5996 76.9054 67.5151V66.7178L75.4838 66.2907L75.029 66.8317L74.8299 67.1165C74.8299 67.1165 74.8299 67.3158 75.0005 67.3728H75.1995V67.5436L73.8917 67.1165V66.9741C74.038 67.0313 74.2004 67.0313 74.3466 66.9741C74.5474 66.8986 74.7175 66.7584 74.8299 66.5754L77.2466 63.7279L77.5024 67.6575ZM75.4838 66.1483L76.7348 66.547L76.5642 64.8384L75.4838 66.1483Z" fill="white"/>
<path d="M87.5954 70.0494C87.8095 70.1219 88.011 70.2276 88.1924 70.3627C88.467 70.5033 88.6765 70.7449 88.7772 71.0369C88.8779 71.3288 88.8619 71.6484 88.7326 71.9288C88.6033 72.1997 88.3725 72.4085 88.0903 72.5098C87.8081 72.6111 87.4974 72.5968 87.2258 72.4698L86.7993 72.2705L85.2925 71.5017V71.3593C85.7758 71.5871 85.9464 71.3593 86.117 70.9606L87.1689 68.768C87.3395 68.3694 87.3964 68.0562 86.9415 67.8283V67.686L88.6189 68.5118V68.6541C88.164 68.4263 87.9934 68.6541 87.766 69.0243L87.3679 69.8786L87.6522 70.0494M86.5719 71.5302C86.4297 71.9003 86.5719 71.8434 86.8846 72.0142C86.9942 72.0814 87.1171 72.1238 87.2447 72.1384C87.3724 72.153 87.5017 72.1395 87.6235 72.0988C87.7454 72.0581 87.8569 71.9913 87.9503 71.9029C88.0437 71.8145 88.1166 71.7067 88.164 71.5871C88.4199 71.0176 88.164 70.562 87.5385 70.2488L87.2542 70.1064L86.5719 71.5302Z" fill="white"/>
<path d="M23.1712 52.11L23.7966 51.9391C23.7966 51.9391 23.9957 51.7398 24.1378 51.3411L24.5643 50.1452L25.3319 47.6678C25.4909 47.3054 25.5962 46.9217 25.6446 46.5288C25.6446 46.0732 25.6446 45.3613 25.076 45.3898H24.5074V44.8488L28.2034 43.8521L28.3456 44.3931C27.9885 44.5137 27.6681 44.7233 27.4144 45.0023C27.1607 45.2813 26.9821 45.6205 26.8956 45.9878L25.1045 50.9994L29.9946 55.6694C30.2908 56.04 30.6749 56.3305 31.1119 56.5145C31.5489 56.6985 32.0248 56.7702 32.4965 56.723V57.264L28.1466 58.4315L28.0044 57.8905H28.2319C29.3975 57.5772 28.8289 56.8084 28.2319 56.2959L24.5074 52.708L24.1947 52.4517C24.1601 52.4317 24.1209 52.4212 24.0809 52.4212C24.041 52.4212 24.0018 52.4317 23.9672 52.4517L23.3133 52.651L24.479 56.9508C24.7633 58.0044 25.2466 58.5739 26.3838 58.403L26.526 58.9156L22.2329 60.0831L22.0908 59.542C23.0385 59.2573 23.3512 58.5454 23.029 57.4064L20.6977 48.8638C20.4987 48.1234 20.2428 47.0983 19.2761 47.0414H18.7075V46.5288L22.7447 45.3328L22.9153 45.8739C21.6928 46.301 21.7496 47.2122 22.0339 48.2943L23.1712 52.11Z" fill="white"/>
<path d="M44.8355 41.4317V41.9727H44.5511C43.3855 41.9727 43.1012 43.3396 42.7316 44.2508L41.0826 48.2088L43.7266 52.7364C44.3237 53.7615 44.9207 54.9006 46.257 54.8721V55.4131L41.5943 55.8972V55.3562C42.959 55.1568 42.7884 54.5019 42.163 53.4198L40.2581 50.1452L38.6944 53.8185C38.3248 54.7582 38.0973 55.6409 39.4052 55.584V56.125L35.9082 56.4952V55.9257C37.1307 55.9257 37.415 54.9575 37.8415 53.9324L39.8032 49.3479L37.415 45.3328C37.0576 44.6531 36.6287 44.0135 36.1356 43.425C35.9512 43.2625 35.7333 43.1426 35.4975 43.0737C35.2617 43.0048 35.0137 42.9886 34.7709 43.0263V42.4568L39.3767 41.9727V42.5422C38.0689 42.7416 38.2111 43.3396 38.8081 44.3931L40.5993 47.4115L41.9924 44.1653C42.4188 43.1972 42.6178 42.1436 41.2816 42.3429V41.8019L44.8355 41.4317Z" fill="white"/>
<path d="M49.7824 51.5404L54.2461 43.4249C54.2461 42.4853 53.9333 41.6595 52.7677 41.6879V41.1469H57.2313V41.6595C55.7529 41.6595 55.7813 42.9409 55.7813 44.1084V52.2523C55.7813 53.3913 55.7813 54.6727 57.2313 54.6727V55.2422H52.8245V54.7012C54.2745 54.7012 54.2745 53.3913 54.2745 52.2523V44.7918L49.7824 52.9072C49.7824 53.9324 50.0667 54.7012 51.2324 54.7012V55.2422H46.7972V54.7012C48.2187 54.7012 48.2756 53.3629 48.2756 52.2808V44.1368C48.2756 43.0263 48.2756 41.7164 46.8256 41.7164V41.1469H51.1755V41.6879C49.7256 41.6879 49.7256 42.9409 49.7256 44.1368L49.7824 51.5404Z" fill="white"/>
<path d="M69.3428 45.2759L64.1684 56.0111L61.7233 44.4216L60.6998 52.6795C60.6998 53.7046 60.3587 55.0145 61.7233 55.2423H61.8655V55.7833L58.2832 55.3562V54.7867C58.4498 54.8149 58.6204 54.809 58.7847 54.7693C58.949 54.7296 59.1035 54.6571 59.239 54.5559C59.3745 54.4548 59.4882 54.3273 59.5731 54.1809C59.658 54.0346 59.7125 53.8726 59.7332 53.7046L59.9038 52.5941L60.8988 44.4786C60.8988 43.4535 61.24 42.1436 59.8753 41.9158H59.7332V41.3748L62.5763 41.7165L64.8223 52.3947L69.7977 42.7131L72.6408 43.0548V43.5958C71.1055 43.5958 71.0486 44.621 70.9065 45.8169L69.9114 53.9324C69.9114 54.9575 69.5702 56.2389 70.9349 56.4952H71.0771V57.0647L66.6419 56.5237V55.9826C66.8085 56.0065 66.9782 55.9965 67.1409 55.9531C67.3036 55.9098 67.4558 55.834 67.5886 55.7303C67.7213 55.6266 67.8318 55.4971 67.9133 55.3497C67.9949 55.2022 68.046 55.0398 68.0634 54.8721C68.1521 54.5063 68.2186 54.1354 68.2624 53.7615L69.3428 45.2759Z" fill="white"/>
<path d="M76.4505 50.8285L77.0476 51.0279C77.0476 51.0279 77.3603 51.0279 77.6731 50.7146L78.6966 49.9458L80.6867 48.2942C80.9977 48.038 81.2921 47.7621 81.5681 47.4684C82.222 46.6996 81.9946 46.2725 81.1701 45.9593L81.3122 45.5606L84.9514 46.6996L84.8092 47.2406C84.4388 47.1542 84.0529 47.161 83.6857 47.2604C83.3186 47.3597 82.9818 47.5486 82.7053 47.8102L78.4976 51.0563L80.0897 57.6057C80.1329 58.0843 80.2963 58.5442 80.5647 58.9425C80.8332 59.3408 81.1979 59.6646 81.625 59.8837L81.4828 60.3963L77.1897 59.0295L77.3603 58.5169H77.5594C78.725 58.8871 78.6397 57.9189 78.4407 57.1501L77.2182 52.1099C77.2327 51.9774 77.2327 51.8438 77.2182 51.7113C77.1915 51.6986 77.1624 51.692 77.1329 51.692C77.1034 51.692 77.0743 51.6986 77.0476 51.7113L76.28 51.2557L74.9153 55.5839C74.5741 56.6375 74.6594 57.3494 75.7113 57.805L75.5692 58.346L71.3046 56.9507L71.4751 56.4382C72.4418 56.7229 73.0957 56.2958 73.4369 55.1568L76.28 46.6142C76.6496 45.4752 76.8201 44.5924 75.5408 44.0799L75.7113 43.5673L79.9475 44.9057L79.6064 45.5606C78.3554 45.2758 77.9005 46.0732 77.5309 47.1267L76.4505 50.8285Z" fill="white"/>
<path d="M86.0317 57.9474L93.2247 52.0814C93.4806 51.1702 93.5943 50.3444 92.5139 49.9458L92.7129 49.4332L96.8354 51.0848L96.6364 51.5974C95.2717 51.0279 94.8168 52.1953 94.3904 53.2774L91.4051 60.8803C91.218 61.3108 91.0751 61.7592 90.9787 62.2187C90.9103 62.5318 90.9673 62.8594 91.1374 63.1309C91.3075 63.4024 91.5772 63.5963 91.8884 63.6709L91.6894 64.1835L87.5385 62.6458L87.7375 62.1333C89.0738 62.6743 89.5855 61.4498 89.9836 60.4247L92.8267 53.4767L85.6621 59.3711C85.3778 60.3393 85.2641 61.1081 86.3729 61.5637L86.1454 62.0763L82.0229 60.4532L82.222 59.9122C83.5582 60.4817 84.0984 59.2003 84.468 58.2037L87.4817 50.6292C87.8797 49.6041 88.3346 48.3512 86.9983 47.7817L87.1974 47.2691L91.3483 48.9207L91.1493 49.4048C89.7561 48.8637 89.3297 50.0597 88.8748 51.1418L86.0317 57.9474Z" fill="white"/>
<path d="M14.2154 63.0445C14.5758 62.8709 14.8666 62.5797 15.0399 62.2187C15.1249 61.95 15.1249 61.6616 15.0399 61.3929L14.7841 60.738C13.8988 61.1609 12.9194 61.3473 11.941 61.279C11.3137 61.1594 10.7161 60.9173 10.1823 60.5663C9.64845 60.2154 9.18889 59.7625 8.82983 59.2337C8.47077 58.7048 8.21925 58.1103 8.08963 57.4841C7.96 56.8579 7.95482 56.2122 8.07438 55.584C8.25132 54.8395 8.60096 54.1473 9.09492 53.5636C9.58889 52.9798 10.2133 52.5208 10.9175 52.2239C10.7954 51.9478 10.6529 51.6813 10.491 51.4266C10.365 51.2904 10.2103 51.184 10.0382 51.1151C9.86615 51.0461 9.68091 51.0164 9.49592 51.0279L8.69985 51.2557L8.52927 50.7147L12.5096 48.8638L12.7655 49.3763C12.565 49.4612 12.3836 49.5856 12.2322 49.7421C12.0808 49.8987 11.9624 50.0842 11.8841 50.2875C11.7996 50.5271 11.7996 50.7884 11.8841 51.0279C11.9457 51.2324 12.0218 51.4322 12.1116 51.6259C13.002 51.2225 13.9812 51.0558 14.9546 51.1418C15.7335 51.2857 16.4655 51.6181 17.087 52.11C17.6284 52.5719 18.0647 53.1448 18.3663 53.79C18.8618 54.7644 19.0312 55.8725 18.8497 56.9508C18.6496 57.654 18.2884 58.3008 17.7949 58.8397C17.3013 59.3785 16.6889 59.7945 16.0066 60.0546C16.1397 60.3602 16.3117 60.6474 16.5183 60.9089C16.723 61.1148 16.9891 61.2484 17.2763 61.2895C17.5636 61.3306 17.8564 61.277 18.1105 61.1367L18.3379 61.6492L14.2154 63.5286V63.0445ZM11.0028 52.7364C10.5765 52.9753 10.2026 53.2976 9.90339 53.6842C9.60415 54.0708 9.38567 54.5138 9.26098 54.9868C9.13629 55.4598 9.10794 55.953 9.17761 56.4372C9.24728 56.9214 9.41354 57.3866 9.6665 57.805C9.81105 58.2781 10.0495 58.7171 10.3676 59.0956C10.6857 59.4741 11.0769 59.7844 11.5176 60.0078C11.9584 60.2311 12.4396 60.3631 12.9325 60.3956C13.4254 60.4281 13.9198 60.3605 14.386 60.197L11.0028 52.7364ZM15.7223 59.599C16.3734 59.2808 16.8955 58.7479 17.2007 58.0898C17.4657 57.5341 17.6033 56.926 17.6033 56.3101C17.6033 55.6942 17.4657 55.0861 17.2007 54.5304C16.9868 53.9611 16.6525 53.4449 16.2206 53.0172C15.7888 52.5896 15.2696 52.2607 14.6988 52.053C14.348 51.9042 13.9709 51.8275 13.59 51.8275C13.209 51.8275 12.8319 51.9042 12.4812 52.053L15.7223 59.599Z" fill="white"/>
<path d="M46.456 128.88C47.2277 128.77 47.9342 128.386 48.4462 127.797C49.1419 127.22 49.6139 126.417 49.7801 125.528C49.9463 124.638 49.7962 123.718 49.3559 122.928C49.2699 122.786 49.155 122.662 49.0187 122.567C48.8824 122.471 48.7276 122.405 48.5643 122.373C48.401 122.341 48.2328 122.343 48.0705 122.38C47.9081 122.417 47.7553 122.487 47.6217 122.587C47.3311 122.862 47.1237 123.213 47.0232 123.601C46.9226 123.989 46.933 124.397 47.053 124.779C47.0995 125.031 47.2143 125.265 47.3848 125.456C47.5553 125.647 47.7749 125.787 48.0197 125.861L48.9011 126.26C48.5823 126.349 48.2481 126.368 47.9213 126.316C47.5944 126.264 47.2826 126.142 47.007 125.959C46.7314 125.775 46.4986 125.535 46.3243 125.253C46.1501 124.971 46.0385 124.655 45.9972 124.326C45.9559 123.997 45.9858 123.663 46.085 123.347C46.1842 123.031 46.3502 122.74 46.5718 122.494C46.7934 122.247 47.0654 122.052 47.3692 121.921C47.6731 121.789 48.0016 121.725 48.3324 121.732C50.1236 121.732 50.9481 123.184 50.8912 124.836C50.8013 125.802 50.4136 126.715 49.7819 127.45C49.1502 128.185 48.3057 128.704 47.3658 128.937C46.9678 128.937 46.5413 128.937 46.3707 128.937" fill="#231F20"/>
<path d="M52.5402 129.079C53.3221 128.976 54.0397 128.591 54.5588 127.997C55.2546 127.419 55.7245 126.614 55.8858 125.723C56.047 124.832 55.8892 123.913 55.4401 123.128C55.3541 122.985 55.2392 122.862 55.1029 122.766C54.9666 122.671 54.8118 122.605 54.6485 122.572C54.4852 122.54 54.317 122.543 54.1546 122.579C53.9923 122.616 53.8394 122.686 53.7058 122.786C53.4129 123.066 53.2042 123.422 53.1037 123.815C53.0032 124.207 53.0148 124.621 53.1372 125.007C53.1963 125.25 53.316 125.474 53.4851 125.658C53.6541 125.843 53.867 125.981 54.1039 126.061L54.9852 126.459C54.6483 126.541 54.2974 126.545 53.9586 126.472C53.6198 126.398 53.3019 126.249 53.0286 126.036C52.7553 125.822 52.5336 125.55 52.3802 125.238C52.2267 124.927 52.1453 124.585 52.1422 124.238C52.1454 123.922 52.2129 123.609 52.3406 123.319C52.4683 123.03 52.6534 122.769 52.8847 122.553C53.1161 122.338 53.3889 122.171 53.6864 122.064C53.984 121.957 54.3001 121.912 54.6156 121.932C56.4068 121.932 57.2313 123.412 57.1744 125.035C57.0869 126.006 56.6965 126.924 56.0586 127.66C55.4207 128.396 54.5677 128.913 53.6206 129.136C53.251 129.136 52.7961 129.136 52.6255 129.136" fill="#231F20"/>
<path d="M58.1127 121.561L58.795 121.391L60.0744 121.134L61.1832 120.85L62.5763 120.508V120.821C62.5461 121.085 62.4791 121.344 62.3773 121.59C62.0645 122.473 60.9557 125.548 60.4724 127.086C60.1597 128.111 59.8754 128.082 58.9371 128.595C59.4185 126.793 60.0854 125.047 60.9273 123.384C61.0695 122.928 61.2685 122.473 61.4106 122.017L60.444 122.216C59.5681 122.365 58.7168 122.633 57.9136 123.014C57.8925 122.853 57.8925 122.69 57.9136 122.53C57.9136 122.33 57.9136 122.159 57.9136 122.017C57.9136 121.875 57.9136 121.704 57.9136 121.561" fill="#231F20"/>
<path d="M38.3816 71.5871C33.1915 72.5483 28.1269 74.0959 23.2849 76.2001V110.712C27.5865 116.278 32.6718 121.189 38.3816 125.292V71.5871Z" fill="#231F20"/>
<path d="M65.6183 125.292C71.3183 121.232 76.403 116.37 80.7151 110.855V76.2001C75.8717 74.0998 70.8075 72.5524 65.6183 71.5871V125.292Z" fill="#231F20"/>
<path d="M59.5342 114.67V70.7044C57.0312 70.4431 54.5165 70.3101 52 70.3057C49.4834 70.3085 46.9687 70.4415 44.4658 70.7044V114.67C46.8375 115.727 49.4043 116.273 52 116.273C54.5957 116.273 57.1625 115.727 59.5342 114.67Z" fill="#231F20"/>
<path d="M43.8119 121.049V126.943C43.8119 127.684 44.1247 127.655 44.807 127.94V128.282C43.739 128.014 42.6856 127.691 41.6512 127.313V126.972C42.1061 126.972 42.7031 127.285 42.7031 126.63V122.017C42.274 122.187 41.825 122.302 41.3669 122.359V121.875C41.821 121.799 42.2558 121.635 42.6463 121.391C42.9971 121.198 43.3846 121.081 43.7835 121.049" fill="#231F20"/>
<path d="M39.8032 1.36682V26.8238C39.6881 28.0149 40.0339 29.2048 40.7692 30.148C41.5046 31.0911 42.5734 31.7156 43.7551 31.8924C44.5843 32.085 45.4345 32.1711 46.2854 32.1487C47.3178 32.0203 48.3654 32.1003 49.3664 32.3839C50.3674 32.6676 51.3016 33.1492 52.1137 33.8003C52.9259 33.1492 53.8601 32.6676 54.8611 32.3839C55.8621 32.1003 56.9097 32.0203 57.9421 32.1487C58.7929 32.1696 59.643 32.0835 60.4724 31.8924C61.6511 31.7091 62.7157 31.083 63.4498 30.1414C64.184 29.1998 64.5324 28.0135 64.4243 26.8238V1.36682H39.8032Z" fill="#231F20"/>
<path d="M52 142.064C76.7917 130.674 91.3767 110.456 97.1197 84.401C101.185 65.9775 101.925 45.9308 102.209 28.3045C91.3148 20.8884 78.77 16.2635 65.6752 14.8357V17.6832C78.1017 19.0435 90.0085 23.4227 100.361 30.4402C98.854 74.7194 97.7452 116.379 52.0284 138.988C6.25476 116.293 5.14596 74.634 3.6107 30.3548C13.9713 23.3329 25.8884 18.9535 38.3247 17.5978V14.7502C25.2136 16.2037 12.659 20.8579 1.7627 28.3045C2.07543 45.9308 2.78621 65.9775 6.88025 84.401C12.5664 110.456 27.2083 130.645 52 142.064Z" fill="#231F20"/>
<path d="M43.2148 15.3482C43.2148 14.7787 43.2148 14.4655 43.556 14.1807C43.8194 13.6433 44.2767 13.226 44.8354 13.0132H46.1148C46.4275 12.7285 46.7403 12.1305 47.053 11.8457C48.3324 12.4152 48.3324 12.7285 48.9863 13.6112C49.299 13.0132 49.953 13.0132 50.5784 12.7285C51.2039 12.4437 51.5451 10.9915 50.8912 10.3935C50.2373 9.79551 49.6118 10.3935 48.9863 9.79551C48.7088 9.28302 48.3852 8.79693 48.0197 8.34326C46.7403 8.62802 46.1148 8.62802 46.4275 10.6782C46.4275 12.1305 46.1148 12.4152 45.4609 12.4152C45.6841 12.1869 45.8574 11.9146 45.97 11.6155C46.0826 11.3165 46.1319 10.9973 46.1148 10.6782C45.4609 8.62802 46.4275 8.05851 47.7069 7.83071C47.3942 7.2612 48.3324 6.69169 48.6736 6.94797C49.953 5.21097 50.2657 5.21097 51.8578 6.09371C52.4833 6.37846 52.796 6.09371 53.4499 5.80895C52.796 6.69169 52.4833 6.69169 51.8578 6.37846C50.2657 5.80895 49.953 6.37846 49.0147 7.83071C49.258 8.3717 49.5841 8.8713 49.9814 9.31143C50.5487 9.37652 51.0934 9.57137 51.5735 9.88093C51.8862 9.88093 52.199 10.1942 52.5117 10.4789H52.8245C52.5117 9.59618 52.5117 8.42869 53.4784 8.42869C54.445 8.42869 54.1039 9.59618 55.3832 9.88093C55.0705 9.88093 54.4166 10.1942 54.1039 9.88093C54.0615 9.91834 54.0276 9.96435 54.0043 10.0159C53.9811 10.0675 53.9691 10.1234 53.9691 10.1799C53.9691 10.2365 53.9811 10.2924 54.0043 10.3439C54.0276 10.3955 54.0615 10.4415 54.1039 10.4789C54.2373 10.5894 54.3919 10.6717 54.558 10.7206C54.7242 10.7696 54.8985 10.7842 55.0705 10.7637C56.0372 10.7637 56.3499 11.0769 56.3499 11.9312C56.9987 12.0012 57.6546 11.9032 58.2548 11.6464C58.5959 11.3617 58.5959 11.0769 58.9087 10.7637H56.0656L55.7244 10.4789H59.2498C59.4881 9.84938 59.9414 9.32477 60.5292 8.9982C60.2165 9.31143 60.2165 9.88093 59.8753 10.1942C60.9414 10.3374 62.0219 10.3374 63.088 10.1942C62.2712 10.7881 61.5185 11.4657 60.842 12.2159C60.1273 12.4498 59.3749 12.5465 58.6244 12.5007C57.6007 13.5136 56.6506 14.5984 55.7813 15.7469C55.7813 15.6638 55.7483 15.5841 55.6897 15.5254C55.631 15.4666 55.5515 15.4336 55.4685 15.4336C56.253 14.4249 57.1081 13.4733 58.0273 12.5861C57.8578 12.4218 57.6369 12.3212 57.4018 12.3013C56.5529 13.1667 55.7998 14.1214 55.1558 15.1489C54.2135 15.2926 53.255 15.2926 52.3127 15.1489C52.6254 14.8641 52.6255 14.5509 52.9382 14.2661C53.2509 13.9814 52.9382 13.9814 52.6255 13.9814C52.3002 14.2955 52.0815 14.7038 52 15.1489V15.9462C52 16.5442 52.6254 17.6832 53.2509 17.6832C53.8764 17.6832 54.2176 17.6832 54.2176 17.9679C54.8715 18.2812 54.8715 18.5659 55.1842 19.1639C55.3003 19.2712 55.3892 19.4047 55.4436 19.5532C55.498 19.7018 55.5163 19.8611 55.497 20.0182C55.4753 20.1796 55.4924 20.3439 55.5468 20.4974C55.6012 20.6509 55.6913 20.7892 55.8097 20.9009C56.656 21.2047 57.3499 21.8281 57.743 22.6379C57.5136 23.2273 57.4506 23.8685 57.5609 24.4913C57.6713 25.1141 57.9507 25.6945 58.3685 26.1689C58.1415 26.1798 57.9149 26.1402 57.7051 26.0528C57.4953 25.9655 57.3074 25.8326 57.1551 25.6637C57.0028 25.4948 56.8898 25.2941 56.8243 25.0761C56.7588 24.8582 56.7424 24.6284 56.7764 24.4034C56.6601 24.6506 56.6278 24.9291 56.6843 25.1964C56.7407 25.4637 56.8829 25.7052 57.0891 25.8841C56.4636 25.5709 55.8097 25.2861 56.1509 23.2359C56.1509 22.3816 56.1509 21.7836 55.497 21.4989C55.5777 22.0051 55.4661 22.5232 55.1842 22.9511V23.5206C55.0081 24.3946 55.0081 25.2949 55.1842 26.1689C54.4238 26.2357 53.658 26.1386 52.9382 25.8841C52.6255 25.8841 52.3127 25.8841 52.3127 26.4536C52.2835 26.6841 52.1725 26.8963 52 27.0516H50.8912C50.8682 26.8925 50.8818 26.7302 50.9311 26.5772C50.9804 26.4242 51.064 26.2845 51.1755 26.1689C51.5529 25.809 51.9846 25.511 52.4549 25.2861C52.2873 25.3061 52.1175 25.2911 51.956 25.2421C51.7945 25.193 51.645 25.1111 51.5167 25.0014C51.357 25 51.2024 25.0572 51.082 25.1621C50.9615 25.267 50.8836 25.4124 50.8627 25.5709C50.8335 25.8013 50.7225 26.0136 50.55 26.1689H49.5834C49.5627 26.0049 49.5831 25.8384 49.6426 25.6843C49.7022 25.5302 49.799 25.3934 49.9245 25.2861L50.8627 24.4034H53.0803C53.0997 24.2421 53.0816 24.0784 53.0273 23.9253C52.9731 23.7722 52.8842 23.6337 52.7676 23.5206C52.466 23.279 52.2244 22.9708 52.0616 22.62C51.8989 22.2693 51.8194 21.8855 51.8294 21.4989L49.9245 20.6162C49.3783 20.0154 48.9449 19.3209 48.6451 18.5659C48.304 17.9679 48.304 17.3984 48.6451 17.0852C47.8429 16.061 47.0933 14.9965 46.3991 13.896C46.2807 14.0076 46.1906 14.146 46.1362 14.2995C46.0818 14.453 46.0647 14.6173 46.0864 14.7787V15.3482C45.7452 15.6614 45.4324 15.9462 45.1197 15.6614C45.105 15.4953 45.1309 15.328 45.1953 15.1742C45.2597 15.0204 45.3606 14.8846 45.4893 14.7787C45.4677 14.6173 45.4847 14.453 45.5391 14.2995C45.5935 14.146 45.6836 14.0076 45.8021 13.896C44.8638 13.896 44.5227 13.896 44.2099 14.1807C43.8972 14.4655 44.5227 14.7787 44.5227 15.0635C44.1405 15.3003 43.6896 15.4007 43.2433 15.3482" fill="white"/>
<path d="M48.0197 14.4655C47.6243 13.9722 47.4043 13.361 47.3942 12.7285C47.053 13.0133 47.053 13.298 46.7403 13.298C47.3373 13.5828 47.5648 14.0669 48.0197 14.4655Z" fill="#231F20"/>
<path d="M53.1088 10.9915C52.5539 11.8233 51.9156 12.5961 51.2039 13.298C51.5451 13.6113 51.8578 13.6113 52.1706 13.896C52.3954 13.1054 52.8389 12.3946 53.45 11.8458C53.3247 11.7446 53.2276 11.6129 53.1678 11.4633C53.1081 11.3137 53.0878 11.1513 53.1088 10.9915Z" fill="#231F20"/>
<path d="M54.0186 12.7285C54.6725 12.4153 54.9852 11.8458 55.6107 11.561C55.298 11.2762 55.298 11.2762 54.6725 11.2762C54.047 11.2762 54.3313 11.8458 54.0186 11.8458C53.7058 12.4153 54.0186 12.4153 54.0186 12.7285Z" fill="#231F20"/>
<path d="M50.5785 15.3482C50.2657 15.6614 50.2657 15.9462 49.953 16.2309C49.6402 16.5157 50.2657 16.8289 50.2657 17.0852C50.5129 17.432 50.6242 17.8576 50.5785 18.2812C50.8912 18.5659 51.2039 18.5659 51.8579 18.5659C52.4302 18.6287 52.9776 18.8343 53.45 19.1639C53.45 18.5659 52.1706 17.9679 51.8579 17.3984C51.2468 16.8496 50.8033 16.1388 50.5785 15.3482Z" fill="#231F20"/>
<path d="M51.5451 19.7334C51.5451 20.6162 53.45 21.2141 54.0755 22.581C54.7294 22.3247 54.7294 21.7267 54.3882 21.1572C54.3882 21.7267 54.0755 21.7267 53.7627 21.442C53.6923 21.392 53.6349 21.3258 53.5953 21.249C53.5556 21.1722 53.5349 21.087 53.5349 21.0006C53.5349 20.9141 53.5556 20.829 53.5953 20.7522C53.6349 20.6754 53.6923 20.6092 53.7627 20.5592H54.3882C54.0754 20.2745 53.7627 19.6765 53.1088 19.3917C53.1088 19.9612 53.1088 19.9612 52.7961 20.2745L51.8578 19.3917C51.8578 19.3917 51.5451 19.3917 51.5451 19.6765" fill="#231F20"/>
<path d="M52 3.4455L52.1422 4.1289L52.8245 4.04348L52.2275 4.41366L52.5118 5.06859L52 4.58451L51.4883 5.06859L51.7441 4.41366L51.1471 4.04348L51.8579 4.1289L52 3.4455Z" fill="white"/>
<path d="M52 27.6781L52.1422 28.3615L52.8245 28.3046L52.2275 28.6463L52.5118 29.3012L52 28.8171L51.4883 29.3012L51.7441 28.6463L51.1471 28.3046L51.8579 28.3615L52 27.6781Z" fill="white"/>
<path d="M62.2067 15.2628L62.3488 15.9462L63.0312 15.8893L62.4341 16.2595L62.7184 16.8859L62.2067 16.4018L61.6949 16.8859L61.9508 16.2595L61.3538 15.8893L62.0361 15.9462L62.2067 15.2628Z" fill="white"/>
<path d="M41.7934 15.2628L41.9355 15.9462L42.6463 15.8893L42.0492 16.2595L42.3051 16.8859L41.7934 16.4018L41.2816 16.8859L41.5659 16.2595L40.9404 15.8893L41.6512 15.9462L41.7934 15.2628Z" fill="white"/>
<path d="M44.7502 23.2928L44.8923 23.9763L45.6031 23.8908L45.006 24.261L45.2619 24.8875L44.7502 24.4319L44.2384 24.8875L44.5227 24.261L43.9257 23.8908L44.608 23.9763L44.7502 23.2928Z" fill="white"/>
<path d="M59.2214 23.2928L59.392 23.9763L60.0743 23.8908L59.4773 24.261L59.7332 24.8875L59.2214 24.4319L58.7096 24.8875L58.994 24.261L58.3969 23.8908L59.0793 23.9763L59.2214 23.2928Z" fill="white"/>
<path d="M59.2214 7.09039L59.392 7.7738L60.0743 7.68838L59.4773 8.05856L59.7332 8.71349L59.2214 8.22941L58.7096 8.71349L58.994 8.05856L58.3969 7.68838L59.0793 7.7738L59.2214 7.09039Z" fill="white"/>
</g>
<defs>
<clipPath id="clip0_5_9600">
<rect width="104" height="144" fill="white"/>
</clipPath>
</defs>
</svg>
